<svg enable-background="new 0 0 128 128" viewBox="0 0 128 128" xmlns="http://www.w3.org/2000/svg"><g clip-rule="evenodd"><path d="m0 0h128v128h-128z" fill="none"/><g fill-rule="evenodd"><path d="m27.585 64c0-4.157.69-8.143 1.923-11.881l-21.57-16.471c-4.204 8.535-6.572 18.153-6.572 28.352 0 10.191 2.366 19.802 6.563 28.332l21.558-16.503c-1.221-3.721-1.902-7.692-1.902-11.829" fill="#fbbc05"/><path d="m65.457 26.182c9.031 0 17.188 3.2 23.597 8.436l18.644-18.618c-11.361-9.891-25.927-16-42.241-16-25.328 0-47.096 14.484-57.519 35.648l21.569 16.471c4.97-15.086 19.137-25.937 35.95-25.937" fill="#ea4335"/><path d="m65.457 101.818c-16.812 0-30.979-10.851-35.949-25.937l-21.57 16.468c10.423 21.167 32.191 35.651 57.519 35.651 15.632 0 30.557-5.551 41.758-15.951l-20.474-15.828c-5.777 3.639-13.052 5.597-21.284 5.597" fill="#34a853"/><path d="m126.634 64c0-3.782-.583-7.855-1.457-11.636h-59.72v24.727h34.376c-1.719 8.431-6.397 14.912-13.092 19.13l20.474 15.828c11.766-10.92 19.419-27.188 19.419-48.049" fill="#4285f4"/></g></g></svg>