<svg height="512" viewBox="0 0 512 512" width="512" xmlns="http://www.w3.org/2000/svg"><path d="m432 320h-32c-8.836556 0-16 7.163444-16 16v112h-320v-320h144c8.836556 0 16-7.163444 16-16v-32c0-8.836556-7.163444-16-16-16h-160c-26.509668 0-48 21.490332-48 48v352c0 26.509668 21.490332 48 48 48h352c26.509668 0 48-21.490332 48-48v-128c0-8.836556-7.163444-16-16-16zm56-320h-128c-21.37 0-32.05 25.91-17 41l35.73 35.73-243.73 243.64c-4.518908 4.503245-7.058926 10.620365-7.058926 17s2.540018 12.496755 7.058926 17l22.67 22.63c4.503245 4.518908 10.620365 7.058926 17 7.058926s12.496755-2.540018 17-7.058926l243.61-243.68 35.72 35.68c15 15 41 4.5 41-17v-128c0-13.254834-10.745166-24-24-24z" fill="#333"/></svg>