<svg clip-rule="evenodd" fill-rule="evenodd" stroke-linejoin="round" stroke-miterlimit="2" viewBox="0 0 512 512" xmlns="http://www.w3.org/2000/svg"><g fill-rule="nonzero"><path d="m501.299 132.766c-5.888-22.03-23.234-39.377-45.264-45.264-39.932-10.701-200.037-10.701-200.037-10.701s-160.105 0-200.038 10.701c-22.025 5.887-39.376 23.234-45.264 45.264-10.696 39.928-10.696 123.236-10.696 123.236s0 83.308 10.696 123.232c5.888 22.03 23.239 39.381 45.264 45.268 39.933 10.697 200.038 10.697 200.038 10.697s160.105 0 200.037-10.697c22.03-5.887 39.376-23.238 45.264-45.268 10.701-39.924 10.701-123.232 10.701-123.232s0-83.308-10.701-123.236z" fill="#ed1f24"/><path d="m204.796 332.803 133.018-76.801-133.018-76.801z" fill="#fff"/></g></svg>